<svg width="64" height="64" viewBox="0 0 64 64" fill="none" xmlns="http://www.w3.org/2000/svg">
<rect x="1.5" y="1.5" width="61" height="61" fill="#FDFDFD" stroke="#3713A2" stroke-width="3"/>
<path d="M15.9451 37.3228C20.0893 38.1708 22.7291 38.0935 24.822 37.3667C26.9371 36.6322 28.6953 35.1694 30.9705 32.7866L32.0535 31.6528L33.0789 32.8394C35.1775 35.2659 37.7742 37.1566 41.1482 37.7163C45.6027 38.3325 49.1673 37.4278 51.6296 35.6616C53.085 34.6176 54.1958 33.2446 54.8953 31.6265C53.3846 32.3769 51.9371 32.5052 50.5642 32.1704C48.4736 31.6604 46.8231 30.067 45.9763 29.3882L45.9646 29.3784L45.9519 29.3687C43.397 27.2252 41.0815 26.0966 39.0017 25.9272C36.9964 25.764 34.9863 26.4751 32.9343 28.5132L31.9187 29.522L30.9138 28.5005C29.3989 26.9592 27.9462 26.2724 26.6365 26.0454C25.3123 25.816 24.0123 26.0359 22.7888 26.5063C20.2861 27.4686 18.368 29.3556 17.5847 30.0483L17.5613 30.0688L17.5369 30.0884L17.155 30.3872C15.2402 31.8289 13.2575 32.518 11.2458 32.2612C10.451 32.1597 9.695 31.9171 8.97729 31.5542C9.30717 32.4074 9.73529 33.1539 10.2644 33.812C11.4479 35.2839 13.2482 36.4525 15.9451 37.3228Z" fill="#3713A2" stroke="#3713A2" stroke-width="2.85"/>
</svg>
